<mxfile host="65bd71144e" modified="2021-02-06T00:56:56.160Z" agent="5.0 (Macintosh; Intel Mac OS X 11_2_0) AppleWebKit/537.36 (KHTML, like Gecko) Code-Exploration/1.53.0-exploration Chrome/87.0.4280.88 Electron/11.1.0 Safari/537.36" etag="RO6nyHqOaCA6PmVsOqgw" version="13.10.0" type="embed">
    <diagram id="e_Id760ATKJSwA0GmFbx" name="Page-1">
        <mxGraphModel dx="502" dy="2783" grid="0" gridSize="10" guides="1" tooltips="1" connect="1" arrows="1" fold="1" page="1" pageScale="1" pageWidth="827" pageHeight="1169" background="#FFFFFF" math="0" shadow="0">
            <root>
                <mxCell id="0"/>
                <mxCell id="1" parent="0"/>
                <mxCell id="2" value="Hotel" style="shape=table;startSize=30;container=1;collapsible=1;childLayout=tableLayout;fixedRows=1;rowLines=0;fontStyle=3;align=left;resizeLast=1;labelPosition=center;verticalLabelPosition=middle;verticalAlign=middle;fontColor=#007FFF;" parent="1" vertex="1">
                    <mxGeometry x="5" y="-2244" width="241.33333333333331" height="285" as="geometry"/>
                </mxCell>
                <mxCell id="3" value="" style="shape=partialRectangle;collapsible=0;dropTarget=0;pointerEvents=0;fillColor=none;top=0;left=0;bottom=1;right=0;points=[[0,0.5],[1,0.5]];portConstraint=eastwest;fontStyle=3;labelPosition=center;verticalLabelPosition=middle;align=left;verticalAlign=middle;fontColor=#000000;" parent="2" vertex="1">
                    <mxGeometry y="30" width="241.33333333333331" height="30" as="geometry"/>
                </mxCell>
                <mxCell id="4" value="PK" style="shape=partialRectangle;connectable=0;fillColor=none;top=0;left=0;bottom=0;right=0;fontStyle=3;overflow=hidden;labelPosition=center;verticalLabelPosition=middle;align=left;verticalAlign=middle;fontColor=#000000;" parent="3" vertex="1">
                    <mxGeometry width="30" height="30" as="geometry"/>
                </mxCell>
                <mxCell id="5" value="Hotel_id" style="shape=partialRectangle;connectable=0;fillColor=none;top=0;left=0;bottom=0;right=0;align=left;spacingLeft=6;fontStyle=3;overflow=hidden;labelPosition=center;verticalLabelPosition=middle;verticalAlign=middle;fontColor=#000000;" parent="3" vertex="1">
                    <mxGeometry x="30" width="88.66666666666666" height="30" as="geometry"/>
                </mxCell>
                <mxCell id="128" value="VARCHAR(20)" style="shape=partialRectangle;connectable=0;fillColor=none;top=0;left=0;bottom=0;right=0;align=left;spacingLeft=6;fontStyle=3;overflow=hidden;labelPosition=center;verticalLabelPosition=middle;verticalAlign=middle;fontColor=#000000;" parent="3" vertex="1">
                    <mxGeometry x="118.66666666666666" width="122.66666666666666" height="30" as="geometry"/>
                </mxCell>
                <mxCell id="6" value="" style="shape=partialRectangle;collapsible=0;dropTarget=0;pointerEvents=0;fillColor=none;top=0;left=0;bottom=0;right=0;points=[[0,0.5],[1,0.5]];portConstraint=eastwest;fontStyle=3;labelPosition=center;verticalLabelPosition=middle;align=left;verticalAlign=middle;fontColor=#000000;" parent="2" vertex="1">
                    <mxGeometry y="60" width="241.33333333333331" height="30" as="geometry"/>
                </mxCell>
                <mxCell id="7" value="" style="shape=partialRectangle;connectable=0;fillColor=none;top=0;left=0;bottom=0;right=0;editable=1;overflow=hidden;fontStyle=3;labelPosition=center;verticalLabelPosition=middle;align=left;verticalAlign=middle;fontColor=#000000;" parent="6" vertex="1">
                    <mxGeometry width="30" height="30" as="geometry"/>
                </mxCell>
                <mxCell id="8" value="Hotel_name" style="shape=partialRectangle;connectable=0;fillColor=none;top=0;left=0;bottom=0;right=0;align=left;spacingLeft=6;overflow=hidden;fontStyle=3;labelPosition=center;verticalLabelPosition=middle;verticalAlign=middle;fontColor=#000000;" parent="6" vertex="1">
                    <mxGeometry x="30" width="88.66666666666666" height="30" as="geometry"/>
                </mxCell>
                <mxCell id="129" value="VARCHAR(40)" style="shape=partialRectangle;connectable=0;fillColor=none;top=0;left=0;bottom=0;right=0;align=left;spacingLeft=6;overflow=hidden;fontStyle=3;labelPosition=center;verticalLabelPosition=middle;verticalAlign=middle;fontColor=#000000;" parent="6" vertex="1">
                    <mxGeometry x="118.66666666666666" width="122.66666666666666" height="30" as="geometry"/>
                </mxCell>
                <mxCell id="9" value="" style="shape=partialRectangle;collapsible=0;dropTarget=0;pointerEvents=0;fillColor=none;top=0;left=0;bottom=0;right=0;points=[[0,0.5],[1,0.5]];portConstraint=eastwest;fontStyle=3;labelPosition=center;verticalLabelPosition=middle;align=left;verticalAlign=middle;fontColor=#000000;" parent="2" vertex="1">
                    <mxGeometry y="90" width="241.33333333333331" height="30" as="geometry"/>
                </mxCell>
                <mxCell id="10" value="" style="shape=partialRectangle;connectable=0;fillColor=none;top=0;left=0;bottom=0;right=0;editable=1;overflow=hidden;fontStyle=3;labelPosition=center;verticalLabelPosition=middle;align=left;verticalAlign=middle;fontColor=#000000;" parent="9" vertex="1">
                    <mxGeometry width="30" height="30" as="geometry"/>
                </mxCell>
                <mxCell id="11" value="description" style="shape=partialRectangle;connectable=0;fillColor=none;top=0;left=0;bottom=0;right=0;align=left;spacingLeft=6;overflow=hidden;fontStyle=3;labelPosition=center;verticalLabelPosition=middle;verticalAlign=middle;fontColor=#000000;" parent="9" vertex="1">
                    <mxGeometry x="30" width="88.66666666666666" height="30" as="geometry"/>
                </mxCell>
                <mxCell id="130" value="VARCHAR(50)" style="shape=partialRectangle;connectable=0;fillColor=none;top=0;left=0;bottom=0;right=0;align=left;spacingLeft=6;overflow=hidden;fontStyle=3;labelPosition=center;verticalLabelPosition=middle;verticalAlign=middle;fontColor=#000000;" parent="9" vertex="1">
                    <mxGeometry x="118.66666666666666" width="122.66666666666666" height="30" as="geometry"/>
                </mxCell>
                <mxCell id="12" value="" style="shape=partialRectangle;collapsible=0;dropTarget=0;pointerEvents=0;fillColor=none;top=0;left=0;bottom=0;right=0;points=[[0,0.5],[1,0.5]];portConstraint=eastwest;fontStyle=3;labelPosition=center;verticalLabelPosition=middle;align=left;verticalAlign=middle;fontColor=#000000;" parent="2" vertex="1">
                    <mxGeometry y="120" width="241.33333333333331" height="30" as="geometry"/>
                </mxCell>
                <mxCell id="13" value="" style="shape=partialRectangle;connectable=0;fillColor=none;top=0;left=0;bottom=0;right=0;editable=1;overflow=hidden;fontStyle=3;labelPosition=center;verticalLabelPosition=middle;align=left;verticalAlign=middle;fontColor=#000000;" parent="12" vertex="1">
                    <mxGeometry width="30" height="30" as="geometry"/>
                </mxCell>
                <mxCell id="14" value="address" style="shape=partialRectangle;connectable=0;fillColor=none;top=0;left=0;bottom=0;right=0;align=left;spacingLeft=6;overflow=hidden;fontStyle=3;labelPosition=center;verticalLabelPosition=middle;verticalAlign=middle;fontColor=#000000;" parent="12" vertex="1">
                    <mxGeometry x="30" width="88.66666666666666" height="30" as="geometry"/>
                </mxCell>
                <mxCell id="131" value="VARCHAR(25)" style="shape=partialRectangle;connectable=0;fillColor=none;top=0;left=0;bottom=0;right=0;align=left;spacingLeft=6;overflow=hidden;fontStyle=3;labelPosition=center;verticalLabelPosition=middle;verticalAlign=middle;fontColor=#000000;" parent="12" vertex="1">
                    <mxGeometry x="118.66666666666666" width="122.66666666666666" height="30" as="geometry"/>
                </mxCell>
                <mxCell id="17" value="" style="shape=partialRectangle;collapsible=0;dropTarget=0;pointerEvents=0;fillColor=none;top=0;left=0;bottom=0;right=0;points=[[0,0.5],[1,0.5]];portConstraint=eastwest;fontStyle=3;labelPosition=center;verticalLabelPosition=middle;align=left;verticalAlign=middle;fontColor=#000000;" parent="2" vertex="1">
                    <mxGeometry y="150" width="241.33333333333331" height="30" as="geometry"/>
                </mxCell>
                <mxCell id="18" value="" style="shape=partialRectangle;connectable=0;fillColor=none;top=0;left=0;bottom=0;right=0;editable=1;overflow=hidden;fontStyle=3;labelPosition=center;verticalLabelPosition=middle;align=left;verticalAlign=middle;fontColor=#000000;" parent="17" vertex="1">
                    <mxGeometry width="30" height="30" as="geometry"/>
                </mxCell>
                <mxCell id="19" value="city" style="shape=partialRectangle;connectable=0;fillColor=none;top=0;left=0;bottom=0;right=0;align=left;spacingLeft=6;overflow=hidden;fontStyle=3;labelPosition=center;verticalLabelPosition=middle;verticalAlign=middle;fontColor=#000000;" parent="17" vertex="1">
                    <mxGeometry x="30" width="88.66666666666666" height="30" as="geometry"/>
                </mxCell>
                <mxCell id="132" value="VARCHAR(20)" style="shape=partialRectangle;connectable=0;fillColor=none;top=0;left=0;bottom=0;right=0;align=left;spacingLeft=6;overflow=hidden;fontStyle=3;labelPosition=center;verticalLabelPosition=middle;verticalAlign=middle;fontColor=#000000;" parent="17" vertex="1">
                    <mxGeometry x="118.66666666666666" width="122.66666666666666" height="30" as="geometry"/>
                </mxCell>
                <mxCell id="140" style="shape=partialRectangle;collapsible=0;dropTarget=0;pointerEvents=0;fillColor=none;top=0;left=0;bottom=0;right=0;points=[[0,0.5],[1,0.5]];portConstraint=eastwest;fontStyle=3;labelPosition=center;verticalLabelPosition=middle;align=left;verticalAlign=middle;fontColor=#000000;" parent="2" vertex="1">
                    <mxGeometry y="180" width="241.33333333333331" height="30" as="geometry"/>
                </mxCell>
                <mxCell id="141" style="shape=partialRectangle;connectable=0;fillColor=none;top=0;left=0;bottom=0;right=0;editable=1;overflow=hidden;fontStyle=3;labelPosition=center;verticalLabelPosition=middle;align=left;verticalAlign=middle;fontColor=#000000;" parent="140" vertex="1">
                    <mxGeometry width="30" height="30" as="geometry"/>
                </mxCell>
                <mxCell id="142" value="state" style="shape=partialRectangle;connectable=0;fillColor=none;top=0;left=0;bottom=0;right=0;align=left;spacingLeft=6;overflow=hidden;fontStyle=3;labelPosition=center;verticalLabelPosition=middle;verticalAlign=middle;fontColor=#000000;" parent="140" vertex="1">
                    <mxGeometry x="30" width="88.66666666666666" height="30" as="geometry"/>
                </mxCell>
                <mxCell id="143" value="VARCHAR(2)" style="shape=partialRectangle;connectable=0;fillColor=none;top=0;left=0;bottom=0;right=0;align=left;spacingLeft=6;overflow=hidden;fontStyle=3;labelPosition=center;verticalLabelPosition=middle;verticalAlign=middle;fontColor=#000000;" parent="140" vertex="1">
                    <mxGeometry x="118.66666666666666" width="122.66666666666666" height="30" as="geometry"/>
                </mxCell>
                <mxCell id="136" style="shape=partialRectangle;collapsible=0;dropTarget=0;pointerEvents=0;fillColor=none;top=0;left=0;bottom=0;right=0;points=[[0,0.5],[1,0.5]];portConstraint=eastwest;fontStyle=3;labelPosition=center;verticalLabelPosition=middle;align=left;verticalAlign=middle;fontColor=#000000;" parent="2" vertex="1">
                    <mxGeometry y="210" width="241.33333333333331" height="30" as="geometry"/>
                </mxCell>
                <mxCell id="137" style="shape=partialRectangle;connectable=0;fillColor=none;top=0;left=0;bottom=0;right=0;editable=1;overflow=hidden;fontStyle=3;labelPosition=center;verticalLabelPosition=middle;align=left;verticalAlign=middle;fontColor=#000000;" parent="136" vertex="1">
                    <mxGeometry width="30" height="30" as="geometry"/>
                </mxCell>
                <mxCell id="138" value="zip" style="shape=partialRectangle;connectable=0;fillColor=none;top=0;left=0;bottom=0;right=0;align=left;spacingLeft=6;overflow=hidden;fontStyle=3;labelPosition=center;verticalLabelPosition=middle;verticalAlign=middle;fontColor=#000000;" parent="136" vertex="1">
                    <mxGeometry x="30" width="88.66666666666666" height="30" as="geometry"/>
                </mxCell>
                <mxCell id="139" value="VARCHAR(5)" style="shape=partialRectangle;connectable=0;fillColor=none;top=0;left=0;bottom=0;right=0;align=left;spacingLeft=6;overflow=hidden;fontStyle=3;labelPosition=center;verticalLabelPosition=middle;verticalAlign=middle;fontColor=#000000;" parent="136" vertex="1">
                    <mxGeometry x="118.66666666666666" width="122.66666666666666" height="30" as="geometry"/>
                </mxCell>
                <mxCell id="20" value="" style="shape=partialRectangle;collapsible=0;dropTarget=0;pointerEvents=0;fillColor=none;top=0;left=0;bottom=0;right=0;points=[[0,0.5],[1,0.5]];portConstraint=eastwest;fontStyle=3;labelPosition=center;verticalLabelPosition=middle;align=left;verticalAlign=middle;fontColor=#000000;" parent="2" vertex="1">
                    <mxGeometry y="240" width="241.33333333333331" height="35" as="geometry"/>
                </mxCell>
                <mxCell id="21" value="" style="shape=partialRectangle;connectable=0;fillColor=none;top=0;left=0;bottom=0;right=0;editable=1;overflow=hidden;fontStyle=3;labelPosition=center;verticalLabelPosition=middle;align=left;verticalAlign=middle;fontColor=#000000;" parent="20" vertex="1">
                    <mxGeometry width="30" height="35" as="geometry"/>
                </mxCell>
                <mxCell id="22" value="email" style="shape=partialRectangle;connectable=0;fillColor=none;top=0;left=0;bottom=0;right=0;align=left;spacingLeft=6;overflow=hidden;fontStyle=3;labelPosition=center;verticalLabelPosition=middle;verticalAlign=middle;fontColor=#000000;" parent="20" vertex="1">
                    <mxGeometry x="30" width="88.66666666666666" height="35" as="geometry"/>
                </mxCell>
                <mxCell id="133" value="VARCHAR(80)" style="shape=partialRectangle;connectable=0;fillColor=none;top=0;left=0;bottom=0;right=0;align=left;spacingLeft=6;overflow=hidden;fontStyle=3;labelPosition=center;verticalLabelPosition=middle;verticalAlign=middle;fontColor=#000000;" parent="20" vertex="1">
                    <mxGeometry x="118.66666666666666" width="122.66666666666666" height="35" as="geometry"/>
                </mxCell>
                <mxCell id="15" value="HOTEL DATA" style="text;html=1;align=left;verticalAlign=middle;resizable=0;points=[];autosize=1;fontSize=28;fontStyle=3;labelPosition=center;verticalLabelPosition=middle;fontColor=#000000;" parent="1" vertex="1">
                    <mxGeometry x="301" y="-2314" width="186" height="37" as="geometry"/>
                </mxCell>
                <mxCell id="24" value="Guest" style="shape=table;startSize=30;container=1;collapsible=1;childLayout=tableLayout;fixedRows=1;rowLines=0;fontStyle=3;align=left;resizeLast=1;fontSize=18;labelPosition=center;verticalLabelPosition=middle;verticalAlign=middle;fontColor=#007FFF;" parent="1" vertex="1">
                    <mxGeometry x="491" y="-2244" width="330" height="195" as="geometry"/>
                </mxCell>
                <mxCell id="25" value="" style="shape=partialRectangle;collapsible=0;dropTarget=0;pointerEvents=0;fillColor=none;top=0;left=0;bottom=1;right=0;points=[[0,0.5],[1,0.5]];portConstraint=eastwest;fontStyle=3;labelPosition=center;verticalLabelPosition=middle;align=left;verticalAlign=middle;fontColor=#000000;" parent="24" vertex="1">
                    <mxGeometry y="30" width="330" height="30" as="geometry"/>
                </mxCell>
                <mxCell id="26" value="PK" style="shape=partialRectangle;connectable=0;fillColor=none;top=0;left=0;bottom=0;right=0;fontStyle=3;overflow=hidden;labelPosition=center;verticalLabelPosition=middle;align=left;verticalAlign=middle;fontColor=#000000;" parent="25" vertex="1">
                    <mxGeometry width="30" height="30" as="geometry"/>
                </mxCell>
                <mxCell id="27" value="guest_id" style="shape=partialRectangle;connectable=0;fillColor=none;top=0;left=0;bottom=0;right=0;align=left;spacingLeft=6;fontStyle=3;overflow=hidden;labelPosition=center;verticalLabelPosition=middle;verticalAlign=middle;fontColor=#000000;" parent="25" vertex="1">
                    <mxGeometry x="30" width="129.1666259765625" height="30" as="geometry"/>
                </mxCell>
                <mxCell id="144" value="VARCHAR(8) NOT NULL" style="shape=partialRectangle;connectable=0;fillColor=none;top=0;left=0;bottom=0;right=0;align=left;spacingLeft=6;fontStyle=3;overflow=hidden;labelPosition=center;verticalLabelPosition=middle;verticalAlign=middle;fontColor=#000000;" parent="25" vertex="1">
                    <mxGeometry x="159.1666259765625" width="170.8333740234375" height="30" as="geometry"/>
                </mxCell>
                <mxCell id="28" value="" style="shape=partialRectangle;collapsible=0;dropTarget=0;pointerEvents=0;fillColor=none;top=0;left=0;bottom=0;right=0;points=[[0,0.5],[1,0.5]];portConstraint=eastwest;fontStyle=3;labelPosition=center;verticalLabelPosition=middle;align=left;verticalAlign=middle;fontColor=#000000;" parent="24" vertex="1">
                    <mxGeometry y="60" width="330" height="35" as="geometry"/>
                </mxCell>
                <mxCell id="29" value="" style="shape=partialRectangle;connectable=0;fillColor=none;top=0;left=0;bottom=0;right=0;editable=1;overflow=hidden;fontStyle=3;labelPosition=center;verticalLabelPosition=middle;align=left;verticalAlign=middle;fontColor=#000000;" parent="28" vertex="1">
                    <mxGeometry width="30" height="35" as="geometry"/>
                </mxCell>
                <mxCell id="30" value="first_name" style="shape=partialRectangle;connectable=0;fillColor=none;top=0;left=0;bottom=0;right=0;align=left;spacingLeft=6;overflow=hidden;fontStyle=3;labelPosition=center;verticalLabelPosition=middle;verticalAlign=middle;fontColor=#000000;" parent="28" vertex="1">
                    <mxGeometry x="30" width="129.1666259765625" height="35" as="geometry"/>
                </mxCell>
                <mxCell id="145" value="VARCHAR(20)" style="shape=partialRectangle;connectable=0;fillColor=none;top=0;left=0;bottom=0;right=0;align=left;spacingLeft=6;overflow=hidden;fontStyle=3;labelPosition=center;verticalLabelPosition=middle;verticalAlign=middle;fontColor=#000000;" parent="28" vertex="1">
                    <mxGeometry x="159.1666259765625" width="170.8333740234375" height="35" as="geometry"/>
                </mxCell>
                <mxCell id="40" value="" style="shape=partialRectangle;collapsible=0;dropTarget=0;pointerEvents=0;fillColor=none;top=0;left=0;bottom=0;right=0;points=[[0,0.5],[1,0.5]];portConstraint=eastwest;fontStyle=3;labelPosition=center;verticalLabelPosition=middle;align=left;verticalAlign=middle;fontColor=#000000;" parent="24" vertex="1">
                    <mxGeometry y="95" width="330" height="30" as="geometry"/>
                </mxCell>
                <mxCell id="41" value="" style="shape=partialRectangle;connectable=0;fillColor=none;top=0;left=0;bottom=0;right=0;editable=1;overflow=hidden;fontStyle=3;labelPosition=center;verticalLabelPosition=middle;align=left;verticalAlign=middle;fontColor=#000000;" parent="40" vertex="1">
                    <mxGeometry width="30" height="30" as="geometry"/>
                </mxCell>
                <mxCell id="42" value="Last_name" style="shape=partialRectangle;connectable=0;fillColor=none;top=0;left=0;bottom=0;right=0;align=left;spacingLeft=6;overflow=hidden;fontStyle=3;labelPosition=center;verticalLabelPosition=middle;verticalAlign=middle;fontColor=#000000;" parent="40" vertex="1">
                    <mxGeometry x="30" width="129.1666259765625" height="30" as="geometry"/>
                </mxCell>
                <mxCell id="146" value="VARCHAR(20)" style="shape=partialRectangle;connectable=0;fillColor=none;top=0;left=0;bottom=0;right=0;align=left;spacingLeft=6;overflow=hidden;fontStyle=3;labelPosition=center;verticalLabelPosition=middle;verticalAlign=middle;fontColor=#000000;" parent="40" vertex="1">
                    <mxGeometry x="159.1666259765625" width="170.8333740234375" height="30" as="geometry"/>
                </mxCell>
                <mxCell id="31" value="" style="shape=partialRectangle;collapsible=0;dropTarget=0;pointerEvents=0;fillColor=none;top=0;left=0;bottom=0;right=0;points=[[0,0.5],[1,0.5]];portConstraint=eastwest;fontStyle=3;labelPosition=center;verticalLabelPosition=middle;align=left;verticalAlign=middle;fontColor=#000000;" parent="24" vertex="1">
                    <mxGeometry y="125" width="330" height="30" as="geometry"/>
                </mxCell>
                <mxCell id="32" value="" style="shape=partialRectangle;connectable=0;fillColor=none;top=0;left=0;bottom=0;right=0;editable=1;overflow=hidden;fontStyle=3;labelPosition=center;verticalLabelPosition=middle;align=left;verticalAlign=middle;fontColor=#000000;" parent="31" vertex="1">
                    <mxGeometry width="30" height="30" as="geometry"/>
                </mxCell>
                <mxCell id="33" value="date_of_birth" style="shape=partialRectangle;connectable=0;fillColor=none;top=0;left=0;bottom=0;right=0;align=left;spacingLeft=6;overflow=hidden;fontStyle=3;labelPosition=center;verticalLabelPosition=middle;verticalAlign=middle;fontColor=#000000;" parent="31" vertex="1">
                    <mxGeometry x="30" width="129.1666259765625" height="30" as="geometry"/>
                </mxCell>
                <mxCell id="147" value="DATE" style="shape=partialRectangle;connectable=0;fillColor=none;top=0;left=0;bottom=0;right=0;align=left;spacingLeft=6;overflow=hidden;fontStyle=3;labelPosition=center;verticalLabelPosition=middle;verticalAlign=middle;fontColor=#000000;" parent="31" vertex="1">
                    <mxGeometry x="159.1666259765625" width="170.8333740234375" height="30" as="geometry"/>
                </mxCell>
                <mxCell id="34" value="" style="shape=partialRectangle;collapsible=0;dropTarget=0;pointerEvents=0;fillColor=none;top=0;left=0;bottom=0;right=0;points=[[0,0.5],[1,0.5]];portConstraint=eastwest;fontStyle=3;labelPosition=center;verticalLabelPosition=middle;align=left;verticalAlign=middle;fontColor=#000000;" parent="24" vertex="1">
                    <mxGeometry y="155" width="330" height="30" as="geometry"/>
                </mxCell>
                <mxCell id="35" value="" style="shape=partialRectangle;connectable=0;fillColor=none;top=0;left=0;bottom=0;right=0;editable=1;overflow=hidden;fontStyle=3;labelPosition=center;verticalLabelPosition=middle;align=left;verticalAlign=middle;fontColor=#000000;" parent="34" vertex="1">
                    <mxGeometry width="30" height="30" as="geometry"/>
                </mxCell>
                <mxCell id="36" value="country" style="shape=partialRectangle;connectable=0;fillColor=none;top=0;left=0;bottom=0;right=0;align=left;spacingLeft=6;overflow=hidden;fontStyle=3;labelPosition=center;verticalLabelPosition=middle;verticalAlign=middle;fontColor=#000000;" parent="34" vertex="1">
                    <mxGeometry x="30" width="129.1666259765625" height="30" as="geometry"/>
                </mxCell>
                <mxCell id="148" value="VARCHAR(5)" style="shape=partialRectangle;connectable=0;fillColor=none;top=0;left=0;bottom=0;right=0;align=left;spacingLeft=6;overflow=hidden;fontStyle=3;labelPosition=center;verticalLabelPosition=middle;verticalAlign=middle;fontColor=#000000;" parent="34" vertex="1">
                    <mxGeometry x="159.1666259765625" width="170.8333740234375" height="30" as="geometry"/>
                </mxCell>
                <mxCell id="262" style="edgeStyle=orthogonalEdgeStyle;rounded=0;orthogonalLoop=1;jettySize=auto;html=1;entryX=0.583;entryY=0.103;entryDx=0;entryDy=0;entryPerimeter=0;fontColor=#007FFF;align=left;" edge="1" parent="1" source="43" target="227">
                    <mxGeometry relative="1" as="geometry"/>
                </mxCell>
                <mxCell id="43" value="reservation" style="shape=table;startSize=30;container=1;collapsible=1;childLayout=tableLayout;fixedRows=1;rowLines=0;fontStyle=3;align=left;resizeLast=1;fontSize=18;labelPosition=center;verticalLabelPosition=middle;verticalAlign=middle;fontColor=#007FFF;" parent="1" vertex="1">
                    <mxGeometry x="482" y="-1813" width="330" height="218" as="geometry"/>
                </mxCell>
                <mxCell id="44" value="" style="shape=partialRectangle;collapsible=0;dropTarget=0;pointerEvents=0;fillColor=none;top=0;left=0;bottom=1;right=0;points=[[0,0.5],[1,0.5]];portConstraint=eastwest;fontStyle=3;labelPosition=center;verticalLabelPosition=middle;align=left;verticalAlign=middle;fontColor=#000000;" parent="43" vertex="1">
                    <mxGeometry y="30" width="330" height="30" as="geometry"/>
                </mxCell>
                <mxCell id="45" value="PK" style="shape=partialRectangle;connectable=0;fillColor=none;top=0;left=0;bottom=0;right=0;fontStyle=3;overflow=hidden;labelPosition=center;verticalLabelPosition=middle;align=left;verticalAlign=middle;fontColor=#000000;" parent="44" vertex="1">
                    <mxGeometry width="30" height="30" as="geometry"/>
                </mxCell>
                <mxCell id="46" value="reservation_id" style="shape=partialRectangle;connectable=0;fillColor=none;top=0;left=0;bottom=0;right=0;align=left;spacingLeft=6;fontStyle=3;overflow=hidden;labelPosition=center;verticalLabelPosition=middle;verticalAlign=middle;fontColor=#000000;" parent="44" vertex="1">
                    <mxGeometry x="30" width="150" height="30" as="geometry"/>
                </mxCell>
                <mxCell id="149" value="VARCHAR (10)" style="shape=partialRectangle;connectable=0;fillColor=none;top=0;left=0;bottom=0;right=0;align=left;spacingLeft=6;fontStyle=3;overflow=hidden;labelPosition=center;verticalLabelPosition=middle;verticalAlign=middle;fontColor=#000000;" parent="44" vertex="1">
                    <mxGeometry x="180" width="150" height="30" as="geometry"/>
                </mxCell>
                <mxCell id="47" value="" style="shape=partialRectangle;collapsible=0;dropTarget=0;pointerEvents=0;fillColor=none;top=0;left=0;bottom=0;right=0;points=[[0,0.5],[1,0.5]];portConstraint=eastwest;fontStyle=3;labelPosition=center;verticalLabelPosition=middle;align=left;verticalAlign=middle;fontColor=#000000;" parent="43" vertex="1">
                    <mxGeometry y="60" width="330" height="30" as="geometry"/>
                </mxCell>
                <mxCell id="48" value="FK" style="shape=partialRectangle;connectable=0;fillColor=none;top=0;left=0;bottom=0;right=0;editable=1;overflow=hidden;fontStyle=3;labelPosition=center;verticalLabelPosition=middle;align=left;verticalAlign=middle;fontColor=#000000;" parent="47" vertex="1">
                    <mxGeometry width="30" height="30" as="geometry"/>
                </mxCell>
                <mxCell id="49" value="guest_id" style="shape=partialRectangle;connectable=0;fillColor=none;top=0;left=0;bottom=0;right=0;align=left;spacingLeft=6;overflow=hidden;fontStyle=3;labelPosition=center;verticalLabelPosition=middle;verticalAlign=middle;fontColor=#000000;" parent="47" vertex="1">
                    <mxGeometry x="30" width="150" height="30" as="geometry"/>
                </mxCell>
                <mxCell id="150" value="VARCHAR(8)" style="shape=partialRectangle;connectable=0;fillColor=none;top=0;left=0;bottom=0;right=0;align=left;spacingLeft=6;overflow=hidden;fontStyle=3;labelPosition=center;verticalLabelPosition=middle;verticalAlign=middle;fontColor=#000000;" parent="47" vertex="1">
                    <mxGeometry x="180" width="150" height="30" as="geometry"/>
                </mxCell>
                <mxCell id="50" value="" style="shape=partialRectangle;collapsible=0;dropTarget=0;pointerEvents=0;fillColor=none;top=0;left=0;bottom=0;right=0;points=[[0,0.5],[1,0.5]];portConstraint=eastwest;fontStyle=3;labelPosition=center;verticalLabelPosition=middle;align=left;verticalAlign=middle;fontColor=#000000;" parent="43" vertex="1">
                    <mxGeometry y="90" width="330" height="30" as="geometry"/>
                </mxCell>
                <mxCell id="51" value="FK" style="shape=partialRectangle;connectable=0;fillColor=none;top=0;left=0;bottom=0;right=0;editable=1;overflow=hidden;fontStyle=3;labelPosition=center;verticalLabelPosition=middle;align=left;verticalAlign=middle;fontColor=#000000;" parent="50" vertex="1">
                    <mxGeometry width="30" height="30" as="geometry"/>
                </mxCell>
                <mxCell id="52" value="room_num" style="shape=partialRectangle;connectable=0;fillColor=none;top=0;left=0;bottom=0;right=0;align=left;spacingLeft=6;overflow=hidden;fontStyle=3;labelPosition=center;verticalLabelPosition=middle;verticalAlign=middle;fontColor=#000000;" parent="50" vertex="1">
                    <mxGeometry x="30" width="150" height="30" as="geometry"/>
                </mxCell>
                <mxCell id="151" value="NUMBER" style="shape=partialRectangle;connectable=0;fillColor=none;top=0;left=0;bottom=0;right=0;align=left;spacingLeft=6;overflow=hidden;fontStyle=3;labelPosition=center;verticalLabelPosition=middle;verticalAlign=middle;fontColor=#000000;" parent="50" vertex="1">
                    <mxGeometry x="180" width="150" height="30" as="geometry"/>
                </mxCell>
                <mxCell id="53" value="" style="shape=partialRectangle;collapsible=0;dropTarget=0;pointerEvents=0;fillColor=none;top=0;left=0;bottom=0;right=0;points=[[0,0.5],[1,0.5]];portConstraint=eastwest;fontStyle=3;labelPosition=center;verticalLabelPosition=middle;align=left;verticalAlign=middle;fontColor=#000000;" parent="43" vertex="1">
                    <mxGeometry y="120" width="330" height="30" as="geometry"/>
                </mxCell>
                <mxCell id="54" value="" style="shape=partialRectangle;connectable=0;fillColor=none;top=0;left=0;bottom=0;right=0;editable=1;overflow=hidden;fontStyle=3;labelPosition=center;verticalLabelPosition=middle;align=left;verticalAlign=middle;fontColor=#000000;" parent="53" vertex="1">
                    <mxGeometry width="30" height="30" as="geometry"/>
                </mxCell>
                <mxCell id="55" value="check_in" style="shape=partialRectangle;connectable=0;fillColor=none;top=0;left=0;bottom=0;right=0;align=left;spacingLeft=6;overflow=hidden;fontStyle=3;labelPosition=center;verticalLabelPosition=middle;verticalAlign=middle;fontColor=#000000;" parent="53" vertex="1">
                    <mxGeometry x="30" width="150" height="30" as="geometry"/>
                </mxCell>
                <mxCell id="152" value="DATE" style="shape=partialRectangle;connectable=0;fillColor=none;top=0;left=0;bottom=0;right=0;align=left;spacingLeft=6;overflow=hidden;fontStyle=3;labelPosition=center;verticalLabelPosition=middle;verticalAlign=middle;fontColor=#000000;" parent="53" vertex="1">
                    <mxGeometry x="180" width="150" height="30" as="geometry"/>
                </mxCell>
                <mxCell id="63" value="" style="shape=partialRectangle;collapsible=0;dropTarget=0;pointerEvents=0;fillColor=none;top=0;left=0;bottom=0;right=0;points=[[0,0.5],[1,0.5]];portConstraint=eastwest;fontStyle=3;labelPosition=center;verticalLabelPosition=middle;align=left;verticalAlign=middle;fontColor=#000000;" parent="43" vertex="1">
                    <mxGeometry y="150" width="330" height="30" as="geometry"/>
                </mxCell>
                <mxCell id="64" value="" style="shape=partialRectangle;connectable=0;fillColor=none;top=0;left=0;bottom=0;right=0;editable=1;overflow=hidden;fontStyle=3;labelPosition=center;verticalLabelPosition=middle;align=left;verticalAlign=middle;fontColor=#000000;" parent="63" vertex="1">
                    <mxGeometry width="30" height="30" as="geometry"/>
                </mxCell>
                <mxCell id="65" value="check_out" style="shape=partialRectangle;connectable=0;fillColor=none;top=0;left=0;bottom=0;right=0;align=left;spacingLeft=6;overflow=hidden;fontStyle=3;labelPosition=center;verticalLabelPosition=middle;verticalAlign=middle;fontColor=#000000;" parent="63" vertex="1">
                    <mxGeometry x="30" width="150" height="30" as="geometry"/>
                </mxCell>
                <mxCell id="153" value="DATE" style="shape=partialRectangle;connectable=0;fillColor=none;top=0;left=0;bottom=0;right=0;align=left;spacingLeft=6;overflow=hidden;fontStyle=3;labelPosition=center;verticalLabelPosition=middle;verticalAlign=middle;fontColor=#000000;" parent="63" vertex="1">
                    <mxGeometry x="180" width="150" height="30" as="geometry"/>
                </mxCell>
                <mxCell id="66" value="" style="shape=partialRectangle;collapsible=0;dropTarget=0;pointerEvents=0;fillColor=none;top=0;left=0;bottom=0;right=0;points=[[0,0.5],[1,0.5]];portConstraint=eastwest;fontStyle=3;labelPosition=center;verticalLabelPosition=middle;align=left;verticalAlign=middle;fontColor=#000000;" parent="43" vertex="1">
                    <mxGeometry y="180" width="330" height="38" as="geometry"/>
                </mxCell>
                <mxCell id="67" value="" style="shape=partialRectangle;connectable=0;fillColor=none;top=0;left=0;bottom=0;right=0;editable=1;overflow=hidden;fontStyle=3;labelPosition=center;verticalLabelPosition=middle;align=left;verticalAlign=middle;fontColor=#000000;" parent="66" vertex="1">
                    <mxGeometry width="30" height="38" as="geometry"/>
                </mxCell>
                <mxCell id="68" value="cost" style="shape=partialRectangle;connectable=0;fillColor=none;top=0;left=0;bottom=0;right=0;align=left;spacingLeft=6;overflow=hidden;fontStyle=3;labelPosition=center;verticalLabelPosition=middle;verticalAlign=middle;fontColor=#000000;" parent="66" vertex="1">
                    <mxGeometry x="30" width="150" height="38" as="geometry"/>
                </mxCell>
                <mxCell id="154" value="CURRENCY" style="shape=partialRectangle;connectable=0;fillColor=none;top=0;left=0;bottom=0;right=0;align=left;spacingLeft=6;overflow=hidden;fontStyle=3;labelPosition=center;verticalLabelPosition=middle;verticalAlign=middle;fontColor=#000000;" parent="66" vertex="1">
                    <mxGeometry x="180" width="150" height="38" as="geometry"/>
                </mxCell>
                <mxCell id="59" value="1" style="text;html=1;align=left;verticalAlign=middle;resizable=0;points=[];autosize=1;fontSize=18;fontStyle=3;labelPosition=center;verticalLabelPosition=middle;fontColor=#000000;" parent="1" vertex="1">
                    <mxGeometry x="270.67" y="-2166" width="20" height="26" as="geometry"/>
                </mxCell>
                <mxCell id="60" value="*" style="text;html=1;align=left;verticalAlign=middle;resizable=0;points=[];autosize=1;fontSize=18;fontStyle=3;labelPosition=center;verticalLabelPosition=middle;fontColor=#000000;" parent="1" vertex="1">
                    <mxGeometry x="457" y="-2151" width="17" height="26" as="geometry"/>
                </mxCell>
                <mxCell id="247" style="edgeStyle=orthogonalEdgeStyle;rounded=0;orthogonalLoop=1;jettySize=auto;html=1;exitX=0.5;exitY=0;exitDx=0;exitDy=0;entryX=0.5;entryY=1;entryDx=0;entryDy=0;endArrow=none;endFill=0;fontSize=18;fontStyle=3;labelPosition=center;verticalLabelPosition=middle;align=left;verticalAlign=middle;fontColor=#000000;" parent="1" source="156" target="24" edge="1">
                    <mxGeometry relative="1" as="geometry"/>
                </mxCell>
                <mxCell id="248" style="edgeStyle=orthogonalEdgeStyle;rounded=0;orthogonalLoop=1;jettySize=auto;html=1;exitX=0.5;exitY=1;exitDx=0;exitDy=0;entryX=0.5;entryY=0;entryDx=0;entryDy=0;endArrow=none;endFill=0;fontSize=18;fontStyle=3;labelPosition=center;verticalLabelPosition=middle;align=left;verticalAlign=middle;fontColor=#000000;" parent="1" source="156" target="43" edge="1">
                    <mxGeometry relative="1" as="geometry"/>
                </mxCell>
                <mxCell id="156" value="&lt;font color=&quot;#007fff&quot;&gt;Relationship&lt;/font&gt;" style="shape=rhombus;perimeter=rhombusPerimeter;whiteSpace=wrap;html=1;align=left;fontSize=18;fontStyle=3;labelPosition=center;verticalLabelPosition=middle;verticalAlign=middle;fontColor=#000000;" parent="1" vertex="1">
                    <mxGeometry x="596" y="-1969" width="120" height="60" as="geometry"/>
                </mxCell>
                <mxCell id="158" value="rooms" style="shape=table;startSize=30;container=1;collapsible=1;childLayout=tableLayout;fixedRows=1;rowLines=0;fontStyle=3;align=left;resizeLast=1;fontSize=18;labelPosition=center;verticalLabelPosition=middle;verticalAlign=middle;fontColor=#007FFF;" parent="1" vertex="1">
                    <mxGeometry x="5" y="-1784" width="257.6666666666668" height="218" as="geometry"/>
                </mxCell>
                <mxCell id="159" value="" style="shape=partialRectangle;collapsible=0;dropTarget=0;pointerEvents=0;fillColor=none;top=0;left=0;bottom=1;right=0;points=[[0,0.5],[1,0.5]];portConstraint=eastwest;fontStyle=3;labelPosition=center;verticalLabelPosition=middle;align=left;verticalAlign=middle;fontColor=#000000;" parent="158" vertex="1">
                    <mxGeometry y="30" width="257.6666666666668" height="30" as="geometry"/>
                </mxCell>
                <mxCell id="160" value="PK" style="shape=partialRectangle;connectable=0;fillColor=none;top=0;left=0;bottom=0;right=0;fontStyle=3;overflow=hidden;labelPosition=center;verticalLabelPosition=middle;align=left;verticalAlign=middle;fontColor=#000000;" parent="159" vertex="1">
                    <mxGeometry width="30" height="30" as="geometry"/>
                </mxCell>
                <mxCell id="161" value="room_num" style="shape=partialRectangle;connectable=0;fillColor=none;top=0;left=0;bottom=0;right=0;align=left;spacingLeft=6;fontStyle=3;overflow=hidden;labelPosition=center;verticalLabelPosition=middle;verticalAlign=middle;fontColor=#000000;" parent="159" vertex="1">
                    <mxGeometry x="30" width="125.00000000000016" height="30" as="geometry"/>
                </mxCell>
                <mxCell id="171" value="TINYINT(10)" style="shape=partialRectangle;connectable=0;fillColor=none;top=0;left=0;bottom=0;right=0;align=left;spacingLeft=6;fontStyle=3;overflow=hidden;labelPosition=center;verticalLabelPosition=middle;verticalAlign=middle;fontColor=#000000;" parent="159" vertex="1">
                    <mxGeometry x="155.00000000000017" width="102.66666666666663" height="30" as="geometry"/>
                </mxCell>
                <mxCell id="162" value="" style="shape=partialRectangle;collapsible=0;dropTarget=0;pointerEvents=0;fillColor=none;top=0;left=0;bottom=0;right=0;points=[[0,0.5],[1,0.5]];portConstraint=eastwest;fontStyle=3;labelPosition=center;verticalLabelPosition=middle;align=left;verticalAlign=middle;fontColor=#000000;" parent="158" vertex="1">
                    <mxGeometry y="60" width="257.6666666666668" height="30" as="geometry"/>
                </mxCell>
                <mxCell id="163" value="" style="shape=partialRectangle;connectable=0;fillColor=none;top=0;left=0;bottom=0;right=0;editable=1;overflow=hidden;fontStyle=3;labelPosition=center;verticalLabelPosition=middle;align=left;verticalAlign=middle;fontColor=#000000;" parent="162" vertex="1">
                    <mxGeometry width="30" height="30" as="geometry"/>
                </mxCell>
                <mxCell id="164" value="Description" style="shape=partialRectangle;connectable=0;fillColor=none;top=0;left=0;bottom=0;right=0;align=left;spacingLeft=6;overflow=hidden;fontStyle=3;labelPosition=center;verticalLabelPosition=middle;verticalAlign=middle;fontColor=#000000;" parent="162" vertex="1">
                    <mxGeometry x="30" width="125.00000000000016" height="30" as="geometry"/>
                </mxCell>
                <mxCell id="172" value="VARCHAR(40)" style="shape=partialRectangle;connectable=0;fillColor=none;top=0;left=0;bottom=0;right=0;align=left;spacingLeft=6;overflow=hidden;fontStyle=3;labelPosition=center;verticalLabelPosition=middle;verticalAlign=middle;fontColor=#000000;" parent="162" vertex="1">
                    <mxGeometry x="155.00000000000017" width="102.66666666666663" height="30" as="geometry"/>
                </mxCell>
                <mxCell id="165" value="" style="shape=partialRectangle;collapsible=0;dropTarget=0;pointerEvents=0;fillColor=none;top=0;left=0;bottom=0;right=0;points=[[0,0.5],[1,0.5]];portConstraint=eastwest;fontStyle=3;labelPosition=center;verticalLabelPosition=middle;align=left;verticalAlign=middle;fontColor=#000000;" parent="158" vertex="1">
                    <mxGeometry y="90" width="257.6666666666668" height="30" as="geometry"/>
                </mxCell>
                <mxCell id="166" value="" style="shape=partialRectangle;connectable=0;fillColor=none;top=0;left=0;bottom=0;right=0;editable=1;overflow=hidden;fontStyle=3;labelPosition=center;verticalLabelPosition=middle;align=left;verticalAlign=middle;fontColor=#000000;" parent="165" vertex="1">
                    <mxGeometry width="30" height="30" as="geometry"/>
                </mxCell>
                <mxCell id="167" value="beds" style="shape=partialRectangle;connectable=0;fillColor=none;top=0;left=0;bottom=0;right=0;align=left;spacingLeft=6;overflow=hidden;fontStyle=3;labelPosition=center;verticalLabelPosition=middle;verticalAlign=middle;fontColor=#000000;" parent="165" vertex="1">
                    <mxGeometry x="30" width="125.00000000000016" height="30" as="geometry"/>
                </mxCell>
                <mxCell id="173" value="TINYINT(2)" style="shape=partialRectangle;connectable=0;fillColor=none;top=0;left=0;bottom=0;right=0;align=left;spacingLeft=6;overflow=hidden;fontStyle=3;labelPosition=center;verticalLabelPosition=middle;verticalAlign=middle;fontColor=#000000;" parent="165" vertex="1">
                    <mxGeometry x="155.00000000000017" width="102.66666666666663" height="30" as="geometry"/>
                </mxCell>
                <mxCell id="168" value="" style="shape=partialRectangle;collapsible=0;dropTarget=0;pointerEvents=0;fillColor=none;top=0;left=0;bottom=0;right=0;points=[[0,0.5],[1,0.5]];portConstraint=eastwest;fontStyle=3;labelPosition=center;verticalLabelPosition=middle;align=left;verticalAlign=middle;fontColor=#000000;" parent="158" vertex="1">
                    <mxGeometry y="120" width="257.6666666666668" height="30" as="geometry"/>
                </mxCell>
                <mxCell id="169" value="" style="shape=partialRectangle;connectable=0;fillColor=none;top=0;left=0;bottom=0;right=0;editable=1;overflow=hidden;fontStyle=3;labelPosition=center;verticalLabelPosition=middle;align=left;verticalAlign=middle;fontColor=#000000;" parent="168" vertex="1">
                    <mxGeometry width="30" height="30" as="geometry"/>
                </mxCell>
                <mxCell id="170" value="maxOccupancy" style="shape=partialRectangle;connectable=0;fillColor=none;top=0;left=0;bottom=0;right=0;align=left;spacingLeft=6;overflow=hidden;fontStyle=3;labelPosition=center;verticalLabelPosition=middle;verticalAlign=middle;fontColor=#000000;" parent="168" vertex="1">
                    <mxGeometry x="30" width="125.00000000000016" height="30" as="geometry"/>
                </mxCell>
                <mxCell id="174" value="TINYINT(2)" style="shape=partialRectangle;connectable=0;fillColor=none;top=0;left=0;bottom=0;right=0;align=left;spacingLeft=6;overflow=hidden;fontStyle=3;labelPosition=center;verticalLabelPosition=middle;verticalAlign=middle;fontColor=#000000;" parent="168" vertex="1">
                    <mxGeometry x="155.00000000000017" width="102.66666666666663" height="30" as="geometry"/>
                </mxCell>
                <mxCell id="180" style="shape=partialRectangle;collapsible=0;dropTarget=0;pointerEvents=0;fillColor=none;top=0;left=0;bottom=0;right=0;points=[[0,0.5],[1,0.5]];portConstraint=eastwest;fontStyle=3;labelPosition=center;verticalLabelPosition=middle;align=left;verticalAlign=middle;fontColor=#000000;" parent="158" vertex="1">
                    <mxGeometry y="150" width="257.6666666666668" height="30" as="geometry"/>
                </mxCell>
                <mxCell id="181" style="shape=partialRectangle;connectable=0;fillColor=none;top=0;left=0;bottom=0;right=0;editable=1;overflow=hidden;fontStyle=3;labelPosition=center;verticalLabelPosition=middle;align=left;verticalAlign=middle;fontColor=#000000;" parent="180" vertex="1">
                    <mxGeometry width="30" height="30" as="geometry"/>
                </mxCell>
                <mxCell id="182" value="avaliability" style="shape=partialRectangle;connectable=0;fillColor=none;top=0;left=0;bottom=0;right=0;align=left;spacingLeft=6;overflow=hidden;fontStyle=3;labelPosition=center;verticalLabelPosition=middle;verticalAlign=middle;fontColor=#000000;" parent="180" vertex="1">
                    <mxGeometry x="30" width="125.00000000000016" height="30" as="geometry"/>
                </mxCell>
                <mxCell id="183" value="TINYINT(2)" style="shape=partialRectangle;connectable=0;fillColor=none;top=0;left=0;bottom=0;right=0;align=left;spacingLeft=6;overflow=hidden;fontStyle=3;labelPosition=center;verticalLabelPosition=middle;verticalAlign=middle;fontColor=#000000;" parent="180" vertex="1">
                    <mxGeometry x="155.00000000000017" width="102.66666666666663" height="30" as="geometry"/>
                </mxCell>
                <mxCell id="176" style="shape=partialRectangle;collapsible=0;dropTarget=0;pointerEvents=0;fillColor=none;top=0;left=0;bottom=0;right=0;points=[[0,0.5],[1,0.5]];portConstraint=eastwest;fontStyle=3;labelPosition=center;verticalLabelPosition=middle;align=left;verticalAlign=middle;fontColor=#000000;" parent="158" vertex="1">
                    <mxGeometry y="180" width="257.6666666666668" height="30" as="geometry"/>
                </mxCell>
                <mxCell id="177" value="FK" style="shape=partialRectangle;connectable=0;fillColor=none;top=0;left=0;bottom=0;right=0;editable=1;overflow=hidden;fontStyle=3;labelPosition=center;verticalLabelPosition=middle;align=left;verticalAlign=middle;fontColor=#000000;" parent="176" vertex="1">
                    <mxGeometry width="30" height="30" as="geometry"/>
                </mxCell>
                <mxCell id="178" value="rate_id" style="shape=partialRectangle;connectable=0;fillColor=none;top=0;left=0;bottom=0;right=0;align=left;spacingLeft=6;overflow=hidden;fontStyle=3;labelPosition=center;verticalLabelPosition=middle;verticalAlign=middle;fontColor=#000000;" parent="176" vertex="1">
                    <mxGeometry x="30" width="125.00000000000016" height="30" as="geometry"/>
                </mxCell>
                <mxCell id="179" value="TINYINT(3)" style="shape=partialRectangle;connectable=0;fillColor=none;top=0;left=0;bottom=0;right=0;align=left;spacingLeft=6;overflow=hidden;fontStyle=3;labelPosition=center;verticalLabelPosition=middle;verticalAlign=middle;fontColor=#000000;" parent="176" vertex="1">
                    <mxGeometry x="155.00000000000017" width="102.66666666666663" height="30" as="geometry"/>
                </mxCell>
                <mxCell id="253" style="edgeStyle=orthogonalEdgeStyle;rounded=0;orthogonalLoop=1;jettySize=auto;html=1;exitX=0;exitY=0.5;exitDx=0;exitDy=0;entryX=1;entryY=0.5;entryDx=0;entryDy=0;endArrow=none;endFill=0;fontSize=18;fontStyle=3;labelPosition=center;verticalLabelPosition=middle;align=left;verticalAlign=middle;fontColor=#000000;" parent="1" source="184" target="165" edge="1">
                    <mxGeometry relative="1" as="geometry"/>
                </mxCell>
                <mxCell id="254" style="edgeStyle=orthogonalEdgeStyle;rounded=0;orthogonalLoop=1;jettySize=auto;html=1;exitX=1;exitY=0.5;exitDx=0;exitDy=0;entryX=0;entryY=0.5;entryDx=0;entryDy=0;endArrow=none;endFill=0;fontSize=18;fontStyle=3;labelPosition=center;verticalLabelPosition=middle;align=left;verticalAlign=middle;fontColor=#000000;" parent="1" source="184" target="53" edge="1">
                    <mxGeometry relative="1" as="geometry"/>
                </mxCell>
                <mxCell id="184" value="&lt;font color=&quot;#007fff&quot;&gt;Relationship&lt;/font&gt;" style="shape=rhombus;perimeter=rhombusPerimeter;whiteSpace=wrap;html=1;align=left;fontSize=18;fontStyle=3;labelPosition=center;verticalLabelPosition=middle;verticalAlign=middle;fontColor=#000000;" parent="1" vertex="1">
                    <mxGeometry x="309" y="-1708" width="120" height="60" as="geometry"/>
                </mxCell>
                <mxCell id="187" value="rates" style="shape=table;startSize=30;container=1;collapsible=1;childLayout=tableLayout;fixedRows=1;rowLines=0;fontStyle=3;align=left;resizeLast=1;fontSize=18;labelPosition=center;verticalLabelPosition=middle;verticalAlign=middle;fontColor=#007FFF;" parent="1" vertex="1">
                    <mxGeometry x="9" y="-1339" width="211.66658528645834" height="130" as="geometry"/>
                </mxCell>
                <mxCell id="188" value="" style="shape=partialRectangle;collapsible=0;dropTarget=0;pointerEvents=0;fillColor=none;top=0;left=0;bottom=1;right=0;points=[[0,0.5],[1,0.5]];portConstraint=eastwest;fontStyle=3;labelPosition=center;verticalLabelPosition=middle;align=left;verticalAlign=middle;fontColor=#000000;" parent="187" vertex="1">
                    <mxGeometry y="30" width="211.66658528645834" height="30" as="geometry"/>
                </mxCell>
                <mxCell id="189" value="PK" style="shape=partialRectangle;connectable=0;fillColor=none;top=0;left=0;bottom=0;right=0;fontStyle=3;overflow=hidden;labelPosition=center;verticalLabelPosition=middle;align=left;verticalAlign=middle;fontColor=#000000;" parent="188" vertex="1">
                    <mxGeometry width="30" height="30" as="geometry"/>
                </mxCell>
                <mxCell id="190" value="rate_id" style="shape=partialRectangle;connectable=0;fillColor=none;top=0;left=0;bottom=0;right=0;align=left;spacingLeft=6;fontStyle=3;overflow=hidden;labelPosition=center;verticalLabelPosition=middle;verticalAlign=middle;fontColor=#000000;" parent="188" vertex="1">
                    <mxGeometry x="30" width="85.66658528645841" height="30" as="geometry"/>
                </mxCell>
                <mxCell id="200" value="VARCHAR(4)" style="shape=partialRectangle;connectable=0;fillColor=none;top=0;left=0;bottom=0;right=0;align=left;spacingLeft=6;fontStyle=3;overflow=hidden;labelPosition=center;verticalLabelPosition=middle;verticalAlign=middle;fontColor=#000000;" parent="188" vertex="1">
                    <mxGeometry x="115.66658528645841" width="95.99999999999993" height="30" as="geometry"/>
                </mxCell>
                <mxCell id="191" value="" style="shape=partialRectangle;collapsible=0;dropTarget=0;pointerEvents=0;fillColor=none;top=0;left=0;bottom=0;right=0;points=[[0,0.5],[1,0.5]];portConstraint=eastwest;fontStyle=3;labelPosition=center;verticalLabelPosition=middle;align=left;verticalAlign=middle;fontColor=#000000;" parent="187" vertex="1">
                    <mxGeometry y="60" width="211.66658528645834" height="30" as="geometry"/>
                </mxCell>
                <mxCell id="192" value="" style="shape=partialRectangle;connectable=0;fillColor=none;top=0;left=0;bottom=0;right=0;editable=1;overflow=hidden;fontStyle=3;labelPosition=center;verticalLabelPosition=middle;align=left;verticalAlign=middle;fontColor=#000000;" parent="191" vertex="1">
                    <mxGeometry width="30" height="30" as="geometry"/>
                </mxCell>
                <mxCell id="193" value="room_num" style="shape=partialRectangle;connectable=0;fillColor=none;top=0;left=0;bottom=0;right=0;align=left;spacingLeft=6;overflow=hidden;fontStyle=3;labelPosition=center;verticalLabelPosition=middle;verticalAlign=middle;fontColor=#000000;" parent="191" vertex="1">
                    <mxGeometry x="30" width="85.66658528645841" height="30" as="geometry"/>
                </mxCell>
                <mxCell id="201" value="TINYINT(3)" style="shape=partialRectangle;connectable=0;fillColor=none;top=0;left=0;bottom=0;right=0;align=left;spacingLeft=6;overflow=hidden;fontStyle=3;labelPosition=center;verticalLabelPosition=middle;verticalAlign=middle;fontColor=#000000;" parent="191" vertex="1">
                    <mxGeometry x="115.66658528645841" width="95.99999999999993" height="30" as="geometry"/>
                </mxCell>
                <mxCell id="194" value="" style="shape=partialRectangle;collapsible=0;dropTarget=0;pointerEvents=0;fillColor=none;top=0;left=0;bottom=0;right=0;points=[[0,0.5],[1,0.5]];portConstraint=eastwest;fontStyle=3;labelPosition=center;verticalLabelPosition=middle;align=left;verticalAlign=middle;fontColor=#000000;" parent="187" vertex="1">
                    <mxGeometry y="90" width="211.66658528645834" height="30" as="geometry"/>
                </mxCell>
                <mxCell id="195" value="" style="shape=partialRectangle;connectable=0;fillColor=none;top=0;left=0;bottom=0;right=0;editable=1;overflow=hidden;fontStyle=3;labelPosition=center;verticalLabelPosition=middle;align=left;verticalAlign=middle;fontColor=#000000;" parent="194" vertex="1">
                    <mxGeometry width="30" height="30" as="geometry"/>
                </mxCell>
                <mxCell id="196" value="daily_rate" style="shape=partialRectangle;connectable=0;fillColor=none;top=0;left=0;bottom=0;right=0;align=left;spacingLeft=6;overflow=hidden;fontStyle=3;labelPosition=center;verticalLabelPosition=middle;verticalAlign=middle;fontColor=#000000;" parent="194" vertex="1">
                    <mxGeometry x="30" width="85.66658528645841" height="30" as="geometry"/>
                </mxCell>
                <mxCell id="202" value="CURRENCY" style="shape=partialRectangle;connectable=0;fillColor=none;top=0;left=0;bottom=0;right=0;align=left;spacingLeft=6;overflow=hidden;fontStyle=3;labelPosition=center;verticalLabelPosition=middle;verticalAlign=middle;fontColor=#000000;" parent="194" vertex="1">
                    <mxGeometry x="115.66658528645841" width="95.99999999999993" height="30" as="geometry"/>
                </mxCell>
                <mxCell id="242" style="edgeStyle=orthogonalEdgeStyle;rounded=0;orthogonalLoop=1;jettySize=auto;html=1;exitX=0.5;exitY=1;exitDx=0;exitDy=0;entryX=0.5;entryY=0;entryDx=0;entryDy=0;endArrow=none;endFill=0;fontSize=18;fontStyle=3;labelPosition=center;verticalLabelPosition=middle;align=left;verticalAlign=middle;fontColor=#000000;" parent="1" source="204" target="187" edge="1">
                    <mxGeometry relative="1" as="geometry"/>
                </mxCell>
                <mxCell id="243" style="edgeStyle=orthogonalEdgeStyle;rounded=0;orthogonalLoop=1;jettySize=auto;html=1;exitX=0.5;exitY=0;exitDx=0;exitDy=0;endArrow=none;endFill=0;fontSize=18;fontStyle=3;labelPosition=center;verticalLabelPosition=middle;align=left;verticalAlign=middle;fontColor=#000000;" parent="1" source="204" edge="1">
                    <mxGeometry relative="1" as="geometry">
                        <mxPoint x="119.66666666666674" y="-1560.996602376302" as="targetPoint"/>
                    </mxGeometry>
                </mxCell>
                <mxCell id="204" value="&lt;font color=&quot;#007fff&quot;&gt;Relationship&lt;/font&gt;" style="shape=rhombus;perimeter=rhombusPerimeter;whiteSpace=wrap;html=1;align=left;fontSize=18;fontStyle=3;labelPosition=center;verticalLabelPosition=middle;verticalAlign=middle;fontColor=#000000;" parent="1" vertex="1">
                    <mxGeometry x="60" y="-1474" width="120" height="60" as="geometry"/>
                </mxCell>
                <mxCell id="240" style="edgeStyle=orthogonalEdgeStyle;rounded=0;orthogonalLoop=1;jettySize=auto;html=1;exitX=0.5;exitY=0;exitDx=0;exitDy=0;endArrow=none;endFill=0;fontSize=18;fontStyle=3;labelPosition=center;verticalLabelPosition=middle;align=left;verticalAlign=middle;fontColor=#000000;" parent="1" source="207" edge="1">
                    <mxGeometry relative="1" as="geometry">
                        <mxPoint x="103.33333333333348" y="-1958.329854329427" as="targetPoint"/>
                    </mxGeometry>
                </mxCell>
                <mxCell id="249" value="1" style="edgeLabel;html=1;align=left;verticalAlign=middle;resizable=0;points=[];fontSize=18;fontStyle=3;labelPosition=center;verticalLabelPosition=middle;fontColor=#000000;" parent="240" vertex="1" connectable="0">
                    <mxGeometry x="-0.1559" y="-2" relative="1" as="geometry">
                        <mxPoint x="9.83" y="-3.97" as="offset"/>
                    </mxGeometry>
                </mxCell>
                <mxCell id="241" style="edgeStyle=orthogonalEdgeStyle;rounded=0;orthogonalLoop=1;jettySize=auto;html=1;exitX=0.5;exitY=1;exitDx=0;exitDy=0;entryX=0.382;entryY=0.002;entryDx=0;entryDy=0;entryPerimeter=0;endArrow=none;endFill=0;fontSize=18;fontStyle=3;labelPosition=center;verticalLabelPosition=middle;align=left;verticalAlign=middle;fontColor=#000000;" parent="1" source="207" target="158" edge="1">
                    <mxGeometry relative="1" as="geometry"/>
                </mxCell>
                <mxCell id="207" value="Relationship" style="shape=rhombus;perimeter=rhombusPerimeter;whiteSpace=wrap;html=1;align=left;fontSize=18;fontStyle=3;labelPosition=center;verticalLabelPosition=middle;verticalAlign=middle;fontColor=#007FFF;" parent="1" vertex="1">
                    <mxGeometry x="43" y="-1892" width="120" height="60" as="geometry"/>
                </mxCell>
                <mxCell id="210" value="payment" style="shape=table;startSize=30;container=1;collapsible=1;childLayout=tableLayout;fixedRows=1;rowLines=0;fontStyle=3;align=left;resizeLast=1;fontSize=18;labelPosition=center;verticalLabelPosition=middle;verticalAlign=middle;fontColor=#007FFF;" parent="1" vertex="1">
                    <mxGeometry x="464" y="-1360" width="330" height="130" as="geometry"/>
                </mxCell>
                <mxCell id="211" value="" style="shape=partialRectangle;collapsible=0;dropTarget=0;pointerEvents=0;fillColor=none;top=0;left=0;bottom=1;right=0;points=[[0,0.5],[1,0.5]];portConstraint=eastwest;fontStyle=3;labelPosition=center;verticalLabelPosition=middle;align=left;verticalAlign=middle;fontColor=#000000;" parent="210" vertex="1">
                    <mxGeometry y="30" width="330" height="30" as="geometry"/>
                </mxCell>
                <mxCell id="212" value="PK" style="shape=partialRectangle;connectable=0;fillColor=none;top=0;left=0;bottom=0;right=0;fontStyle=3;overflow=hidden;labelPosition=center;verticalLabelPosition=middle;align=left;verticalAlign=middle;fontColor=#000000;" parent="211" vertex="1">
                    <mxGeometry width="30" height="30" as="geometry"/>
                </mxCell>
                <mxCell id="213" value="payment_id" style="shape=partialRectangle;connectable=0;fillColor=none;top=0;left=0;bottom=0;right=0;align=left;spacingLeft=6;fontStyle=3;overflow=hidden;labelPosition=center;verticalLabelPosition=middle;verticalAlign=middle;fontColor=#000000;" parent="211" vertex="1">
                    <mxGeometry x="30" width="150" height="30" as="geometry"/>
                </mxCell>
                <mxCell id="223" value="VARCHAR(10)" style="shape=partialRectangle;connectable=0;fillColor=none;top=0;left=0;bottom=0;right=0;align=left;spacingLeft=6;fontStyle=3;overflow=hidden;labelPosition=center;verticalLabelPosition=middle;verticalAlign=middle;fontColor=#000000;" parent="211" vertex="1">
                    <mxGeometry x="180" width="150" height="30" as="geometry"/>
                </mxCell>
                <mxCell id="214" value="" style="shape=partialRectangle;collapsible=0;dropTarget=0;pointerEvents=0;fillColor=none;top=0;left=0;bottom=0;right=0;points=[[0,0.5],[1,0.5]];portConstraint=eastwest;fontStyle=3;labelPosition=center;verticalLabelPosition=middle;align=left;verticalAlign=middle;fontColor=#000000;" parent="210" vertex="1">
                    <mxGeometry y="60" width="330" height="30" as="geometry"/>
                </mxCell>
                <mxCell id="215" value="FK" style="shape=partialRectangle;connectable=0;fillColor=none;top=0;left=0;bottom=0;right=0;editable=1;overflow=hidden;fontStyle=3;labelPosition=center;verticalLabelPosition=middle;align=left;verticalAlign=middle;fontColor=#000000;" parent="214" vertex="1">
                    <mxGeometry width="30" height="30" as="geometry"/>
                </mxCell>
                <mxCell id="216" value="guest_id" style="shape=partialRectangle;connectable=0;fillColor=none;top=0;left=0;bottom=0;right=0;align=left;spacingLeft=6;overflow=hidden;fontStyle=3;labelPosition=center;verticalLabelPosition=middle;verticalAlign=middle;fontColor=#000000;" parent="214" vertex="1">
                    <mxGeometry x="30" width="150" height="30" as="geometry"/>
                </mxCell>
                <mxCell id="224" value="VARCHAR(8)" style="shape=partialRectangle;connectable=0;fillColor=none;top=0;left=0;bottom=0;right=0;align=left;spacingLeft=6;overflow=hidden;fontStyle=3;labelPosition=center;verticalLabelPosition=middle;verticalAlign=middle;fontColor=#000000;" parent="214" vertex="1">
                    <mxGeometry x="180" width="150" height="30" as="geometry"/>
                </mxCell>
                <mxCell id="220" value="" style="shape=partialRectangle;collapsible=0;dropTarget=0;pointerEvents=0;fillColor=none;top=0;left=0;bottom=0;right=0;points=[[0,0.5],[1,0.5]];portConstraint=eastwest;fontStyle=3;labelPosition=center;verticalLabelPosition=middle;align=left;verticalAlign=middle;fontColor=#000000;" parent="210" vertex="1">
                    <mxGeometry y="90" width="330" height="30" as="geometry"/>
                </mxCell>
                <mxCell id="221" value="" style="shape=partialRectangle;connectable=0;fillColor=none;top=0;left=0;bottom=0;right=0;editable=1;overflow=hidden;fontStyle=3;labelPosition=center;verticalLabelPosition=middle;align=left;verticalAlign=middle;fontColor=#000000;" parent="220" vertex="1">
                    <mxGeometry width="30" height="30" as="geometry"/>
                </mxCell>
                <mxCell id="222" value="payment_type" style="shape=partialRectangle;connectable=0;fillColor=none;top=0;left=0;bottom=0;right=0;align=left;spacingLeft=6;overflow=hidden;fontStyle=3;labelPosition=center;verticalLabelPosition=middle;verticalAlign=middle;fontColor=#000000;" parent="220" vertex="1">
                    <mxGeometry x="30" width="150" height="30" as="geometry"/>
                </mxCell>
                <mxCell id="226" value="VARCHAR(12)" style="shape=partialRectangle;connectable=0;fillColor=none;top=0;left=0;bottom=0;right=0;align=left;spacingLeft=6;overflow=hidden;fontStyle=3;labelPosition=center;verticalLabelPosition=middle;verticalAlign=middle;fontColor=#000000;" parent="220" vertex="1">
                    <mxGeometry x="180" width="150" height="30" as="geometry"/>
                </mxCell>
                <mxCell id="244" style="edgeStyle=orthogonalEdgeStyle;rounded=0;orthogonalLoop=1;jettySize=auto;html=1;exitX=0.5;exitY=1;exitDx=0;exitDy=0;entryX=0.5;entryY=0;entryDx=0;entryDy=0;endArrow=none;endFill=0;fontSize=18;fontStyle=3;labelPosition=center;verticalLabelPosition=middle;align=left;verticalAlign=middle;fontColor=#000000;" parent="1" source="227" target="210" edge="1">
                    <mxGeometry relative="1" as="geometry"/>
                </mxCell>
                <mxCell id="227" value="&lt;font color=&quot;#007fff&quot;&gt;Relationship&lt;/font&gt;" style="shape=rhombus;perimeter=rhombusPerimeter;whiteSpace=wrap;html=1;align=left;fontSize=18;fontStyle=3;labelPosition=center;verticalLabelPosition=middle;verticalAlign=middle;fontColor=#000000;" parent="1" vertex="1">
                    <mxGeometry x="577" y="-1514" width="120" height="60" as="geometry"/>
                </mxCell>
                <mxCell id="235" style="edgeStyle=orthogonalEdgeStyle;rounded=0;orthogonalLoop=1;jettySize=auto;html=1;exitX=1;exitY=0.5;exitDx=0;exitDy=0;entryX=0.001;entryY=0.859;entryDx=0;entryDy=0;entryPerimeter=0;endArrow=none;endFill=0;fontSize=18;fontStyle=3;labelPosition=center;verticalLabelPosition=middle;align=left;verticalAlign=middle;fontColor=#000000;" parent="1" source="230" target="40" edge="1">
                    <mxGeometry relative="1" as="geometry"/>
                </mxCell>
                <mxCell id="239" style="edgeStyle=orthogonalEdgeStyle;rounded=0;orthogonalLoop=1;jettySize=auto;html=1;exitX=0;exitY=0.5;exitDx=0;exitDy=0;entryX=0.999;entryY=0.07;entryDx=0;entryDy=0;entryPerimeter=0;endArrow=none;endFill=0;fontSize=18;fontStyle=3;labelPosition=center;verticalLabelPosition=middle;align=left;verticalAlign=middle;fontColor=#000000;" parent="1" source="230" target="12" edge="1">
                    <mxGeometry relative="1" as="geometry"/>
                </mxCell>
                <mxCell id="230" value="Relationship" style="shape=rhombus;perimeter=rhombusPerimeter;whiteSpace=wrap;html=1;align=left;fontSize=18;fontStyle=3;labelPosition=center;verticalLabelPosition=middle;verticalAlign=middle;fontColor=#007FFF;" parent="1" vertex="1">
                    <mxGeometry x="309" y="-2153" width="120" height="60" as="geometry"/>
                </mxCell>
                <mxCell id="250" value="*" style="text;html=1;align=left;verticalAlign=middle;resizable=0;points=[];autosize=1;fontSize=18;fontStyle=3;labelPosition=center;verticalLabelPosition=middle;fontColor=#000000;" parent="1" vertex="1">
                    <mxGeometry x="117" y="-1825" width="17" height="26" as="geometry"/>
                </mxCell>
                <mxCell id="251" value="*" style="text;html=1;align=left;verticalAlign=middle;resizable=0;points=[];autosize=1;fontSize=18;fontStyle=3;labelPosition=center;verticalLabelPosition=middle;fontColor=#000000;" parent="1" vertex="1">
                    <mxGeometry x="132" y="-1532" width="17" height="26" as="geometry"/>
                </mxCell>
                <mxCell id="252" value="1" style="text;html=1;align=left;verticalAlign=middle;resizable=0;points=[];autosize=1;fontSize=18;fontStyle=3;labelPosition=center;verticalLabelPosition=middle;fontColor=#000000;" parent="1" vertex="1">
                    <mxGeometry x="130" y="-1390" width="20" height="26" as="geometry"/>
                </mxCell>
                <mxCell id="255" value="*" style="text;html=1;align=left;verticalAlign=middle;resizable=0;points=[];autosize=1;fontSize=18;fontStyle=3;labelPosition=center;verticalLabelPosition=middle;fontColor=#000000;" parent="1" vertex="1">
                    <mxGeometry x="283" y="-1712" width="17" height="26" as="geometry"/>
                </mxCell>
                <mxCell id="256" value="1" style="text;html=1;align=left;verticalAlign=middle;resizable=0;points=[];autosize=1;fontSize=18;fontStyle=3;labelPosition=center;verticalLabelPosition=middle;fontColor=#000000;" parent="1" vertex="1">
                    <mxGeometry x="450" y="-1711" width="20" height="26" as="geometry"/>
                </mxCell>
                <mxCell id="258" value="*" style="text;html=1;align=left;verticalAlign=middle;resizable=0;points=[];autosize=1;fontSize=18;fontStyle=3;labelPosition=center;verticalLabelPosition=middle;fontColor=#000000;" parent="1" vertex="1">
                    <mxGeometry x="644" y="-1414" width="17" height="26" as="geometry"/>
                </mxCell>
                <mxCell id="259" value="1" style="text;html=1;align=left;verticalAlign=middle;resizable=0;points=[];autosize=1;fontSize=18;fontStyle=3;labelPosition=center;verticalLabelPosition=middle;fontColor=#000000;" parent="1" vertex="1">
                    <mxGeometry x="663" y="-2030" width="20" height="26" as="geometry"/>
                </mxCell>
                <mxCell id="260" value="*" style="text;html=1;align=left;verticalAlign=middle;resizable=0;points=[];autosize=1;fontSize=18;fontStyle=3;labelPosition=center;verticalLabelPosition=middle;fontColor=#000000;" parent="1" vertex="1">
                    <mxGeometry x="660" y="-1870" width="17" height="26" as="geometry"/>
                </mxCell>
                <mxCell id="263" value="&lt;b&gt;&lt;i&gt;&lt;font style=&quot;font-size: 18px&quot;&gt;1&lt;/font&gt;&lt;/i&gt;&lt;/b&gt;" style="text;html=1;align=center;verticalAlign=middle;resizable=0;points=[];autosize=1;fontColor=#007FFF;" vertex="1" parent="1">
                    <mxGeometry x="661" y="-1578" width="20" height="19" as="geometry"/>
                </mxCell>
            </root>
        </mxGraphModel>
    </diagram>
</mxfile>